<?xml version="1.0" ?>
<!-- Uploaded to: SVG Repo, www.svgrepo.com, Generator: SVG Repo Mixer Tools -->
<svg width="800px" height="800px" viewBox="0 0 32 32" id="Camada_1" version="1.1" xml:space="preserve" xmlns="http://www.w3.org/2000/svg" xmlns:xlink="http://www.w3.org/1999/xlink">
<style type="text/css">
	.st0{fill:#FFFFFF;}
</style>
<path d="M6,2h20c2.2,0,4,1.8,4,4v20c0,2.2-1.8,4-4,4H6c-2.2,0-4-1.8-4-4V6C2,3.8,3.8,2,6,2z"/>
<g>
<path class="st0" d="M21.3,9.7c-0.6,0-1.2,0.5-1.2,1.2c0,0.7,0.5,1.2,1.2,1.2c0.7,0,1.2-0.5,1.2-1.2C22.4,10.2,21.9,9.7,21.3,9.7z"/>
<path class="st0" d="M16,11.2c-2.7,0-4.9,2.2-4.9,4.9c0,2.7,2.2,4.9,4.9,4.9s4.9-2.2,4.9-4.9C21,13.4,18.8,11.2,16,11.2z M16,19.3   c-1.7,0-3.2-1.4-3.2-3.2c0-1.7,1.4-3.2,3.2-3.2c1.7,0,3.2,1.4,3.2,3.2C19.2,17.9,17.8,19.3,16,19.3z"/>
<path class="st0" d="M20,6h-8c-3.3,0-6,2.7-6,6v8c0,3.3,2.7,6,6,6h8c3.3,0,6-2.7,6-6v-8C26,8.7,23.3,6,20,6z M24.1,20   c0,2.3-1.9,4.1-4.1,4.1h-8c-2.3,0-4.1-1.9-4.1-4.1v-8c0-2.3,1.9-4.1,4.1-4.1h8c2.3,0,4.1,1.9,4.1,4.1V20z"/>
</g>
</svg>